<svg xmlns="http://www.w3.org/2000/svg" viewBox="0 0 8.2155 8.2155" role="img" aria-label="WS monogram">
<title>Watch Sim</title>
<!-- GENERATED by tools/make-favicon.mjs from brandMarkShapes() in src/geometry.js
     (the §41 WS monogram on the winding crown). Do not hand-edit: re-run
     that tool (see its header for the exact invocation) to regenerate. -->
<rect width="8.2155" height="8.2155" rx="1.0269" fill="#0b0d10"/>
<path fill="#d6d9dd" fill-rule="nonzero" d="M0.664,1.9496 L1.7782,6.367 L2.422,6.2046 L1.3079,1.7872 L0.664,1.9496ZM2.0877,6.4284 L3.4351,4.612 L2.9018,4.2164 L1.5544,6.0328 L2.0877,6.4284ZM2.5062,4.612 L3.8535,6.4284 L4.3868,6.0328 L3.0395,4.2164 L2.5062,4.612ZM4.1631,6.367 L5.2773,1.9496 L4.6334,1.7872 L3.5193,6.2046 L4.1631,6.367ZM7.2266,2.5152 L7.2104,2.4994 L7.1939,2.4838 L7.177,2.4686 L7.1599,2.4538 L7.1424,2.4393 L7.1247,2.4251 L7.1066,2.4113 L7.0883,2.3979 L7.0698,2.3849 L7.0509,2.3723 L7.0318,2.36 L7.0125,2.3481 L6.9929,2.3367 L6.9731,2.3256 L6.9531,2.315 L6.9328,2.3047 L6.9124,2.2949 L6.8917,2.2855 L6.8709,2.2765 L6.8499,2.2679 L6.8287,2.2598 L6.8073,2.2521 L6.7858,2.2449 L6.7642,2.2381 L6.7424,2.2317 L6.7205,2.2258 L6.6985,2.2203 L6.6763,2.2153 L6.6541,2.2107 L6.6318,2.2066 L6.6094,2.203 L6.5869,2.1998 L6.5644,2.1971 L6.5418,2.1948 L6.5192,2.193 L6.4966,2.1916 L6.4739,2.1908 L6.4512,2.1903 L6.4285,2.1904 L6.4058,2.1909 L6.3832,2.1919 L6.3605,2.1933 L6.3379,2.1952 L6.3153,2.1976 L6.2928,2.2004 L6.2704,2.2037 L6.248,2.2074 L6.2257,2.2116 L6.2035,2.2163 L6.1814,2.2214 L6.1594,2.2269 L6.1375,2.2329 L6.1157,2.2394 L6.0941,2.2463 L6.0727,2.2536 L6.0513,2.2614 L6.0302,2.2696 L6.0092,2.2783 L5.9884,2.2873 L5.9678,2.2968 L5.9474,2.3067 L5.9272,2.3171 L5.9072,2.3278 L5.8874,2.3389 L5.8679,2.3505 L5.8486,2.3624 L5.8296,2.3748 L5.8108,2.3875 L5.7922,2.4006 L5.774,2.4141 L5.756,2.4279 L5.7383,2.4421 L5.7209,2.4567 L5.7038,2.4716 L5.6871,2.4869 L5.6706,2.5025 L5.6545,2.5185 L5.6386,2.5347 L5.6232,2.5513 L5.608,2.5682 L5.5932,2.5854 L5.5788,2.6029 L5.5647,2.6208 L5.551,2.6388 L5.5377,2.6572 L5.5248,2.6758 L5.5122,2.6947 L5.5,2.7139 L5.4882,2.7333 L5.4768,2.7529 L5.4659,2.7727 L5.4553,2.7928 L5.4451,2.8131 L5.4354,2.8336 L5.4261,2.8543 L5.4172,2.8752 L5.4087,2.8962 L5.4007,2.9174 L5.3931,2.9388 L5.3859,2.9603 L5.3792,2.982 L5.3729,3.0038 L5.3671,3.0257 L5.3617,3.0478 L5.3568,3.0699 L5.3523,3.0922 L5.3483,3.1145 L5.3447,3.1369 L5.3416,3.1594 L5.339,3.1819 L5.3368,3.2045 L5.3351,3.2272 L5.3338,3.2498 L5.3331,3.2725 L5.3327,3.2952 L5.3329,3.3179 L5.3335,3.3405 L5.3345,3.3632 L5.3361,3.3858 L5.3381,3.4084 L5.3405,3.431 L5.3434,3.4535 L5.3468,3.4759 L5.3506,3.4983 L5.3549,3.5206 L5.3597,3.5428 L5.3649,3.5649 L5.3705,3.5868 L5.3766,3.6087 L5.3832,3.6304 L5.3901,3.652 L5.3976,3.6735 L5.4054,3.6947 L5.4137,3.7159 L5.4225,3.7368 L5.4316,3.7576 L5.4412,3.7781 L5.4512,3.7985 L5.4616,3.8187 L5.4724,3.8386 L5.4836,3.8583 L5.4953,3.8778 L5.5073,3.8971 L5.5197,3.9161 L5.5325,3.9348 L5.5457,3.9533 L5.5592,3.9715 L5.5731,3.9894 L5.5874,4.007 L5.6021,4.0243 L5.6171,4.0414 L5.6324,4.0581 L5.6481,4.0745 L5.6641,4.0906 L5.6804,4.1063 L5.6971,4.1217 L5.7141,4.1368 L5.7313,4.1515 L5.7489,4.1659 L5.7668,4.1799 L5.7849,4.1935 L5.8033,4.2067 L5.822,4.2196 L5.8409,4.2321 L5.8601,4.2442 L5.8796,4.2559 L5.8993,4.2672 L5.9192,4.2781 L5.9393,4.2886 L5.9596,4.2987 L5.9801,4.3083 L6.0009,4.3176 L6.0218,4.3264 L6.0429,4.3348 L6.0641,4.3427 L6.0855,4.3502 L6.1071,4.3573 L6.1288,4.3639 L6.1506,4.3701 L6.1726,4.3759 L6.1946,4.3812 L6.2168,4.386 L6.2391,4.3904 L6.2614,4.3943 L6.2838,4.3978 L6.3063,4.4008 L6.3289,4.4033 L6.3515,4.4054 L6.3741,4.407 L6.3968,4.4082 L6.4194,4.4089 L6.4421,4.4091 L6.4421,3.7451 L6.433,3.745 L6.4239,3.7447 L6.4148,3.7443 L6.4057,3.7436 L6.3967,3.7428 L6.3876,3.7417 L6.3786,3.7405 L6.3696,3.7391 L6.3606,3.7376 L6.3517,3.7358 L6.3428,3.7339 L6.3339,3.7317 L6.3251,3.7294 L6.3163,3.727 L6.3076,3.7243 L6.299,3.7215 L6.2904,3.7184 L6.2818,3.7152 L6.2734,3.7119 L6.265,3.7083 L6.2567,3.7046 L6.2484,3.7008 L6.2403,3.6967 L6.2322,3.6925 L6.2242,3.6881 L6.2163,3.6836 L6.2085,3.6789 L6.2008,3.674 L6.1932,3.669 L6.1857,3.6638 L6.1783,3.6585 L6.171,3.6531 L6.1638,3.6474 L6.1568,3.6417 L6.1498,3.6358 L6.143,3.6297 L6.1363,3.6235 L6.1298,3.6172 L6.1234,3.6108 L6.1171,3.6042 L6.1109,3.5975 L6.1049,3.5906 L6.099,3.5837 L6.0933,3.5766 L6.0877,3.5694 L6.0822,3.5621 L6.0769,3.5547 L6.0718,3.5472 L6.0668,3.5395 L6.062,3.5318 L6.0573,3.524 L6.0528,3.5161 L6.0485,3.5081 L6.0443,3.5 L6.0403,3.4918 L6.0364,3.4835 L6.0328,3.4752 L6.0293,3.4668 L6.0259,3.4583 L6.0228,3.4498 L6.0198,3.4411 L6.017,3.4325 L6.0144,3.4238 L6.0119,3.415 L6.0097,3.4062 L6.0076,3.3973 L6.0057,3.3884 L6.0039,3.3794 L6.0024,3.3705 L6.001,3.3615 L5.9999,3.3524 L5.9989,3.3434 L5.9981,3.3343 L5.9975,3.3252 L5.997,3.3161 L5.9968,3.307 L5.9967,3.2979 L5.9969,3.2888 L5.9972,3.2797 L5.9977,3.2706 L5.9984,3.2615 L5.9993,3.2524 L6.0003,3.2434 L6.0016,3.2344 L6.003,3.2254 L6.0046,3.2164 L6.0064,3.2075 L6.0084,3.1986 L6.0105,3.1897 L6.0129,3.1809 L6.0154,3.1722 L6.0181,3.1635 L6.021,3.1548 L6.024,3.1462 L6.0272,3.1377 L6.0306,3.1293 L6.0342,3.1209 L6.038,3.1126 L6.0419,3.1044 L6.0459,3.0962 L6.0502,3.0882 L6.0546,3.0802 L6.0592,3.0723 L6.0639,3.0645 L6.0688,3.0568 L6.0738,3.0492 L6.079,3.0418 L6.0844,3.0344 L6.0899,3.0271 L6.0955,3.02 L6.1013,3.013 L6.1073,3.006 L6.1133,2.9993 L6.1196,2.9926 L6.1259,2.9861 L6.1324,2.9797 L6.139,2.9734 L6.1457,2.9673 L6.1526,2.9613 L6.1596,2.9554 L6.1667,2.9497 L6.1739,2.9442 L6.1812,2.9387 L6.1887,2.9335 L6.1962,2.9284 L6.2038,2.9234 L6.2116,2.9186 L6.2194,2.914 L6.2274,2.9095 L6.2354,2.9052 L6.2435,2.9011 L6.2517,2.8971 L6.26,2.8933 L6.2683,2.8896 L6.2767,2.8862 L6.2852,2.8829 L6.2938,2.8797 L6.3024,2.8768 L6.3111,2.874 L6.3198,2.8714 L6.3286,2.869 L6.3374,2.8668 L6.3463,2.8648 L6.3552,2.8629 L6.3642,2.8612 L6.3732,2.8597 L6.3822,2.8584 L6.3912,2.8572 L6.4003,2.8563 L6.4094,2.8555 L6.4185,2.855 L6.4276,2.8546 L6.4367,2.8544 L6.4458,2.8543 L6.4549,2.8545 L6.464,2.8549 L6.4731,2.8554 L6.4822,2.8561 L6.4912,2.857 L6.5003,2.8581 L6.5093,2.8594 L6.5183,2.8609 L6.5272,2.8625 L6.5362,2.8644 L6.545,2.8664 L6.5539,2.8686 L6.5627,2.8709 L6.5714,2.8735 L6.5801,2.8762 L6.5887,2.8791 L6.5973,2.8822 L6.6058,2.8855 L6.6142,2.8889 L6.6226,2.8925 L6.6309,2.8963 L6.6391,2.9003 L6.6472,2.9044 L6.6553,2.9086 L6.6632,2.9131 L6.6711,2.9177 L6.6789,2.9225 L6.6865,2.9274 L6.6941,2.9324 L6.7016,2.9377 L6.7089,2.9431 L6.7161,2.9486 L6.7233,2.9543 L6.7303,2.9601 L6.7372,2.9661 L6.7439,2.9722 L6.7506,2.9784 L6.7571,2.9848 L7.2266,2.5152ZM6.4421,3.7451 L6.4648,3.7453 L6.4875,3.746 L6.5102,3.7472 L6.5328,3.7488 L6.5554,3.7509 L6.5779,3.7534 L6.6004,3.7564 L6.6228,3.7599 L6.6452,3.7638 L6.6675,3.7682 L6.6896,3.7731 L6.7117,3.7783 L6.7336,3.7841 L6.7555,3.7903 L6.7772,3.7969 L6.7987,3.804 L6.8201,3.8115 L6.8414,3.8194 L6.8625,3.8278 L6.8834,3.8366 L6.9041,3.8459 L6.9246,3.8555 L6.945,3.8656 L6.9651,3.8761 L6.985,3.887 L7.0047,3.8983 L7.0241,3.91 L7.0433,3.9221 L7.0622,3.9346 L7.0809,3.9475 L7.0993,3.9607 L7.1175,3.9743 L7.1353,3.9883 L7.1529,4.0027 L7.1702,4.0174 L7.1872,4.0325 L7.2038,4.0479 L7.2202,4.0636 L7.2362,4.0797 L7.2518,4.0961 L7.2672,4.1128 L7.2822,4.1299 L7.2968,4.1472 L7.3111,4.1648 L7.325,4.1827 L7.3386,4.2009 L7.3518,4.2194 L7.3646,4.2381 L7.377,4.2571 L7.389,4.2764 L7.4006,4.2959 L7.4118,4.3156 L7.4227,4.3355 L7.4331,4.3557 L7.4431,4.3761 L7.4526,4.3966 L7.4618,4.4174 L7.4705,4.4383 L7.4788,4.4595 L7.4867,4.4808 L7.4941,4.5022 L7.5011,4.5238 L7.5076,4.5455 L7.5137,4.5674 L7.5194,4.5893 L7.5246,4.6114 L7.5293,4.6336 L7.5336,4.6559 L7.5374,4.6783 L7.5408,4.7007 L7.5437,4.7232 L7.5462,4.7458 L7.5482,4.7684 L7.5497,4.791 L7.5508,4.8137 L7.5514,4.8363 L7.5515,4.859 L7.5512,4.8817 L7.5504,4.9044 L7.5492,4.9271 L7.5474,4.9497 L7.5453,4.9723 L7.5426,4.9948 L7.5395,5.0173 L7.536,5.0397 L7.5319,5.062 L7.5275,5.0843 L7.5226,5.1064 L7.5172,5.1285 L7.5113,5.1504 L7.5051,5.1722 L7.4983,5.1939 L7.4912,5.2154 L7.4836,5.2368 L7.4756,5.258 L7.4671,5.279 L7.4582,5.2999 L7.4489,5.3206 L7.4391,5.3411 L7.429,5.3614 L7.4184,5.3815 L7.4074,5.4013 L7.396,5.4209 L7.3842,5.4403 L7.3721,5.4595 L7.3595,5.4784 L7.3465,5.497 L7.3332,5.5154 L7.3195,5.5335 L7.3054,5.5513 L7.291,5.5688 L7.2762,5.586 L7.2611,5.6029 L7.2456,5.6195 L7.2298,5.6358 L7.2137,5.6517 L7.1972,5.6673 L7.1804,5.6826 L7.1633,5.6975 L7.1459,5.7121 L7.1282,5.7263 L7.1103,5.7401 L7.092,5.7536 L7.0735,5.7667 L7.0547,5.7794 L7.0357,5.7918 L7.0164,5.8037 L6.9968,5.8153 L6.9771,5.8264 L6.9571,5.8372 L6.9369,5.8475 L6.9165,5.8574 L6.8958,5.8669 L6.875,5.8759 L6.8541,5.8846 L6.8329,5.8928 L6.8116,5.9006 L6.7901,5.9079 L6.7685,5.9148 L6.7468,5.9213 L6.7249,5.9273 L6.7029,5.9328 L6.6808,5.9379 L6.6586,5.9426 L6.6363,5.9468 L6.6139,5.9505 L6.5914,5.9538 L6.5689,5.9566 L6.5464,5.959 L6.5237,5.9609 L6.5011,5.9623 L6.4784,5.9633 L6.4557,5.9638 L6.4331,5.9639 L6.4104,5.9634 L6.3877,5.9626 L6.365,5.9612 L6.3424,5.9594 L6.3198,5.9571 L6.2973,5.9544 L6.2749,5.9512 L6.2525,5.9476 L6.2301,5.9435 L6.2079,5.9389 L6.1858,5.9339 L6.1638,5.9284 L6.1419,5.9225 L6.1201,5.9161 L6.0984,5.9093 L6.0769,5.9021 L6.0556,5.8944 L6.0344,5.8863 L6.0134,5.8777 L5.9926,5.8687 L5.9719,5.8593 L5.9514,5.8495 L5.9312,5.8393 L5.9112,5.8286 L5.8914,5.8175 L5.8718,5.8061 L5.8524,5.7942 L5.8333,5.7819 L5.8145,5.7693 L5.7959,5.7563 L5.7776,5.7429 L5.7596,5.7291 L5.7418,5.715 L5.7244,5.7004 L5.7072,5.6856 L5.6904,5.6704 L5.6739,5.6548 L5.6577,5.639 L6.1272,5.1694 L6.1337,5.1758 L6.1403,5.182 L6.1471,5.1882 L6.154,5.1941 L6.161,5.1999 L6.1681,5.2056 L6.1754,5.2111 L6.1827,5.2165 L6.1902,5.2218 L6.1977,5.2268 L6.2054,5.2318 L6.2132,5.2365 L6.221,5.2411 L6.229,5.2456 L6.237,5.2498 L6.2451,5.254 L6.2533,5.2579 L6.2616,5.2617 L6.27,5.2653 L6.2784,5.2687 L6.2869,5.272 L6.2955,5.2751 L6.3041,5.278 L6.3128,5.2807 L6.3216,5.2833 L6.3304,5.2856 L6.3392,5.2878 L6.3481,5.2898 L6.357,5.2917 L6.366,5.2933 L6.375,5.2948 L6.384,5.2961 L6.393,5.2972 L6.4021,5.2981 L6.4112,5.2988 L6.4203,5.2993 L6.4294,5.2997 L6.4385,5.2999 L6.4476,5.2998 L6.4567,5.2996 L6.4658,5.2993 L6.4749,5.2987 L6.484,5.2979 L6.493,5.297 L6.5021,5.2958 L6.5111,5.2945 L6.5201,5.293 L6.529,5.2913 L6.5379,5.2895 L6.5468,5.2874 L6.5556,5.2852 L6.5644,5.2828 L6.5732,5.2802 L6.5818,5.2774 L6.5905,5.2745 L6.599,5.2713 L6.6075,5.268 L6.6159,5.2646 L6.6243,5.2609 L6.6326,5.2571 L6.6407,5.2531 L6.6489,5.249 L6.6569,5.2447 L6.6648,5.2402 L6.6727,5.2356 L6.6804,5.2308 L6.6881,5.2258 L6.6956,5.2207 L6.703,5.2155 L6.7104,5.2101 L6.7176,5.2045 L6.7247,5.1988 L6.7317,5.1929 L6.7385,5.1869 L6.7453,5.1808 L6.7519,5.1745 L6.7583,5.1681 L6.7647,5.1616 L6.7709,5.1549 L6.777,5.1482 L6.7829,5.1413 L6.7887,5.1342 L6.7944,5.1271 L6.7999,5.1198 L6.8052,5.1124 L6.8104,5.105 L6.8155,5.0974 L6.8203,5.0897 L6.8251,5.0819 L6.8297,5.074 L6.8341,5.0661 L6.8383,5.058 L6.8424,5.0499 L6.8463,5.0416 L6.85,5.0333 L6.8536,5.0249 L6.857,5.0165 L6.8602,5.008 L6.8633,4.9994 L6.8662,4.9907 L6.8689,4.982 L6.8714,4.9733 L6.8737,4.9645 L6.8759,4.9556 L6.8779,4.9467 L6.8796,4.9378 L6.8813,4.9288 L6.8827,4.9199 L6.8839,4.9108 L6.885,4.9018 L6.8859,4.8927 L6.8866,4.8836 L6.8871,4.8745 L6.8874,4.8654 L6.8875,4.8563 L6.8875,4.8472 L6.8872,4.8381 L6.8868,4.829 L6.8862,4.8199 L6.8854,4.8108 L6.8844,4.8018 L6.8832,4.7928 L6.8819,4.7837 L6.8803,4.7748 L6.8786,4.7658 L6.8767,4.7569 L6.8746,4.748 L6.8723,4.7392 L6.8699,4.7305 L6.8673,4.7217 L6.8645,4.7131 L6.8615,4.7045 L6.8583,4.6959 L6.855,4.6874 L6.8515,4.679 L6.8478,4.6707 L6.844,4.6624 L6.84,4.6542 L6.8358,4.6462 L6.8314,4.6381 L6.8269,4.6302 L6.8223,4.6224 L6.8174,4.6147 L6.8125,4.6071 L6.8073,4.5995 L6.802,4.5921 L6.7966,4.5848 L6.791,4.5776 L6.7853,4.5705 L6.7794,4.5636 L6.7734,4.5567 L6.7672,4.55 L6.7609,4.5435 L6.7545,4.537 L6.7479,4.5307 L6.7412,4.5245 L6.7344,4.5184 L6.7275,4.5125 L6.7204,4.5068 L6.7133,4.5012 L6.706,4.4957 L6.6986,4.4904 L6.6911,4.4852 L6.6835,4.4802 L6.6758,4.4753 L6.668,4.4706 L6.6601,4.4661 L6.6521,4.4617 L6.644,4.4575 L6.6358,4.4534 L6.6276,4.4496 L6.6193,4.4459 L6.6109,4.4423 L6.6024,4.439 L6.5939,4.4358 L6.5853,4.4328 L6.5766,4.4299 L6.5679,4.4272 L6.5592,4.4248 L6.5503,4.4225 L6.5415,4.4203 L6.5326,4.4184 L6.5236,4.4166 L6.5147,4.4151 L6.5057,4.4137 L6.4966,4.4125 L6.4876,4.4114 L6.4785,4.4106 L6.4694,4.41 L6.4603,4.4095 L6.4512,4.4092 L6.4421,4.4091 L6.4421,3.7451Z"/>
</svg>
